Coordinates
version=1
nRows=50
nColumns=24
inDegrees=yes

Units are S.I. units (second, meters, Newtons, ...)
If the header above contains a line with 'inDegrees', this indicates whether rotational values are in degrees (yes) or radians (no).

endheader
time	pelvis_tilt	pelvis_list	pelvis_rotation	pelvis_tx	pelvis_ty	pelvis_tz	hip_flexion_r	hip_adduction_r	hip_rotation_r	knee_angle_r	ankle_angle_r	subtalar_angle_r	mtp_angle_r	hip_flexion_l	hip_adduction_l	hip_rotation_l	knee_angle_l	ankle_angle_l	subtalar_angle_l	mtp_angle_l	lumbar_extension	lumbar_bending	lumbar_rotation
4.925000	10.646234	1.995074	-181.778014	0.283070	0.782958	-1.207304	39.681882	-17.136400	-19.145875	-48.410290	14.316334	8.780568	0.000000	40.679475	-22.861954	-18.245912	-50.274350	14.521605	7.556942	0.000000	-3.819990	2.487976	2.184279
4.930000	10.649251	1.968181	-181.673917	0.283984	0.780288	-1.207200	40.254512	-17.355159	-19.104540	-49.389610	14.580715	8.287447	0.000000	41.267718	-22.890553	-17.899947	-51.140245	14.850871	7.553738	0.000000	-4.001986	2.445284	2.115826
4.935000	10.646551	1.978788	-181.617740	0.284852	0.777576	-1.207104	40.804537	-17.488902	-18.873680	-50.324581	14.989078	8.131172	0.000000	41.838611	-22.974250	-17.561937	-52.006260	15.224387	7.533811	0.000000	-4.178655	2.431976	2.103411
4.940000	10.764451	2.052176	-181.612079	0.285725	0.774829	-1.207019	41.423255	-17.495054	-18.480327	-51.137057	15.449311	8.264476	0.000000	42.538647	-23.139369	-17.221232	-52.862245	15.560918	7.476571	0.000000	-4.212226	2.526297	2.118313
4.945000	10.780024	2.071099	-181.519147	0.286560	0.771988	-1.206887	42.000366	-17.674549	-18.427286	-52.120397	15.761797	7.931234	0.000000	43.159993	-23.208622	-16.862524	-53.740450	15.951987	7.463112	0.000000	-4.386482	2.501488	2.096780
4.950000	10.810011	2.087603	-181.457902	0.287370	0.769184	-1.206879	42.554895	-17.787752	-18.206748	-53.001300	16.150202	7.757383	0.000000	43.769906	-23.291741	-16.522346	-54.591338	16.323582	7.449592	0.000000	-4.510068	2.515404	2.021061
4.955000	10.777674	2.079072	-181.338174	0.288230	0.766230	-1.206869	43.058966	-17.968361	-17.998263	-53.937295	16.578555	7.666099	0.000000	44.348581	-23.332855	-16.173988	-55.467529	16.698508	7.471722	0.000000	-4.730062	2.438332	1.970346
4.960000	10.802388	2.084440	-181.280891	0.289040	0.763263	-1.206779	43.627599	-18.119226	-17.796283	-54.857436	16.990057	7.609025	0.000000	44.963397	-23.430017	-15.891850	-56.349234	17.052887	7.498474	0.000000	-4.870876	2.429421	1.954059
4.965000	10.891942	2.118535	-181.256761	0.289821	0.760240	-1.206574	44.263059	-18.238934	-17.603544	-55.770298	17.376333	7.546641	0.000000	45.636967	-23.552016	-15.603641	-57.225493	17.408373	7.485510	0.000000	-4.921134	2.486782	1.991460
4.970000	10.874205	2.143458	-181.181256	0.290638	0.757200	-1.206566	44.787379	-18.388900	-17.442639	-56.717628	17.820522	7.449072	0.000000	46.220203	-23.662085	-15.299342	-58.109324	17.758120	7.509054	0.000000	-5.107851	2.480051	1.958558
4.975000	10.951974	2.159659	-181.142873	0.291407	0.754128	-1.206421	45.393978	-18.535421	-17.267121	-57.609830	18.191536	7.396910	0.000000	46.874149	-23.782993	-15.055668	-58.973607	18.125489	7.572167	0.000000	-5.170253	2.500037	1.962565
4.980000	11.051538	2.193843	-181.113788	0.292227	0.751059	-1.206419	46.004186	-18.629688	-17.073828	-58.450856	18.523225	7.341703	0.000000	47.546209	-23.935985	-14.816789	-59.816036	18.476723	7.648946	0.000000	-5.213870	2.538005	1.898017
4.985000	11.043762	2.179546	-181.007745	0.293006	0.747953	-1.206388	46.512536	-18.837646	-16.915169	-59.344407	18.907236	7.304217	0.000000	48.126706	-24.004310	-14.559940	-60.676921	18.852456	7.746759	0.000000	-5.376943	2.494100	1.827696
4.990000	11.094399	2.242816	-180.951028	0.293752	0.744744	-1.206354	47.071683	-18.970171	-16.811327	-60.233447	19.302661	7.289717	0.000000	48.785779	-24.167461	-14.258717	-61.574703	19.268799	7.882795	0.000000	-5.481254	2.531737	1.841501
4.995000	11.079710	2.244604	-180.894827	0.294524	0.741682	-1.206377	47.588600	-19.152080	-16.682091	-61.135522	19.666297	7.223907	0.000000	49.332554	-24.277688	-14.018815	-62.408169	19.604346	7.966649	0.000000	-5.646362	2.523185	1.778207
5.000000	11.187056	2.322560	-180.914382	0.295281	0.738379	-1.206323	48.212970	-19.227526	-16.505138	-62.000809	20.061446	7.352964	0.000000	50.023783	-24.497976	-13.788931	-63.258768	19.970438	8.032798	0.000000	-5.697669	2.587238	1.876619
5.005000	11.138693	2.418336	-180.912997	0.295853	0.735355	-1.206520	48.641474	-19.288621	-16.479458	-62.854148	20.384295	7.196605	0.000000	50.528796	-24.762150	-13.562178	-64.092343	20.351597	8.221631	0.000000	-5.877075	2.669592	1.870418
5.010000	11.161579	2.394628	-180.841404	0.296636	0.732019	-1.206384	49.201277	-19.522440	-16.331842	-63.753735	20.764574	7.195084	0.000000	51.130260	-24.836968	-13.344242	-64.957270	20.750338	8.330534	0.000000	-6.000293	2.630988	1.860137
5.015000	11.225650	2.449188	-180.823144	0.297345	0.728848	-1.206457	49.757694	-19.631271	-16.222885	-64.587539	21.106794	7.233807	0.000000	51.757086	-25.011552	-13.097077	-65.768650	21.117218	8.458845	0.000000	-6.063378	2.672573	1.861718
5.020000	11.257411	2.498359	-180.808145	0.297948	0.725653	-1.206398	50.277377	-19.761123	-16.119696	-65.419928	21.488923	7.243694	0.000000	52.346085	-25.172577	-12.850941	-66.594213	21.487815	8.556172	0.000000	-6.172988	2.728165	1.844033
5.025000	11.228940	2.538744	-180.778226	0.298618	0.722441	-1.206468	50.763357	-19.900238	-16.004761	-66.298782	21.870902	7.249940	0.000000	52.890812	-25.336532	-12.602705	-67.445987	21.825659	8.688552	0.000000	-6.339203	2.731342	1.867864
5.030000	11.260525	2.592394	-180.796974	0.299244	0.719216	-1.206461	51.288072	-19.992351	-15.865882	-67.107188	22.223437	7.278652	0.000000	53.473078	-25.529089	-12.372735	-68.269832	22.200909	8.830522	0.000000	-6.439423	2.777413	1.935729
5.035000	11.237970	2.624041	-180.749839	0.299893	0.715949	-1.206496	51.761625	-20.152467	-15.756335	-67.952344	22.584691	7.290619	0.000000	54.020507	-25.660952	-12.116532	-69.093262	22.560706	8.951847	0.000000	-6.594586	2.793008	1.911239
5.040000	11.255237	2.657870	-180.715957	0.300509	0.712716	-1.206559	52.256009	-20.288273	-15.633345	-68.748924	22.919904	7.345540	0.000000	54.585379	-25.790673	-11.861644	-69.867011	22.928408	9.083621	0.000000	-6.700350	2.818529	1.877311
5.045000	11.274265	2.687710	-180.701478	0.301055	0.709478	-1.206565	52.762617	-20.418955	-15.499836	-69.561208	23.273487	7.338053	0.000000	55.139621	-25.933568	-11.641428	-70.651973	23.296097	9.160810	0.000000	-6.793604	2.827623	1.906528
5.050000	11.300387	2.736047	-180.704806	0.301607	0.706210	-1.206468	53.281743	-20.521718	-15.354045	-70.366571	23.620374	7.321993	0.000000	55.714323	-26.072084	-11.379570	-71.450315	23.649825	9.208504	0.000000	-6.883608	2.871493	1.985151
5.055000	11.303308	2.764800	-180.684081	0.302166	0.702985	-1.206501	53.774888	-20.645803	-15.214701	-71.176715	23.982425	7.299304	0.000000	56.263679	-26.199331	-11.127283	-72.245560	24.051967	9.160216	0.000000	-6.995267	2.890445	1.994307
5.060000	11.302165	2.759034	-180.643664	0.302698	0.699780	-1.206475	54.254593	-20.810297	-15.063286	-71.964452	24.331342	7.324649	0.000000	56.787116	-26.281401	-10.911039	-73.019768	24.402507	9.264676	0.000000	-7.108804	2.868520	2.007792
5.065000	11.328366	2.753910	-180.605283	0.303227	0.696528	-1.206519	54.759758	-20.960705	-14.892187	-72.736744	24.686078	7.376036	0.000000	57.381603	-26.377614	-10.675592	-73.954048	24.566235	9.498975	0.000000	-7.197076	2.841053	1.992939
5.070000	11.312521	2.766930	-180.542761	0.303717	0.693284	-1.206537	55.210012	-21.122215	-14.760496	-73.527520	25.067473	7.413541	0.000000	57.849021	-26.445178	-10.439674	-74.513574	25.138523	9.495431	0.000000	-7.328947	2.818815	2.007738
5.075000	11.328936	2.782308	-180.508443	0.304210	0.690059	-1.206575	55.709598	-21.259845	-14.618718	-74.312829	25.419915	7.438675	0.000000	58.399488	-26.528603	-10.176476	-75.276690	25.390958	9.676204	0.000000	-7.420326	2.819405	2.011576
5.080000	11.341412	2.801547	-180.508416	0.304687	0.686841	-1.206591	56.192292	-21.356872	-14.466902	-75.097857	25.801302	7.368803	0.000000	58.943310	-26.645717	-9.935372	-76.084696	25.628885	9.690838	0.000000	-7.521766	2.824309	2.059128
5.085000	11.378584	2.795920	-180.467339	0.305236	0.683489	-1.206634	56.727546	-21.512744	-14.306240	-75.893712	26.125511	7.327329	0.000000	59.482901	-26.699529	-9.683702	-76.742297	26.053921	9.706392	0.000000	-7.593227	2.791979	2.058043
5.090000	11.397616	2.773109	-180.432986	0.305707	0.680190	-1.206686	57.229436	-21.673175	-14.125123	-76.664114	26.443428	7.372362	0.000000	60.009835	-26.762367	-9.472223	-77.472863	26.487583	9.871663	0.000000	-7.680162	2.742754	2.060994
5.095000	11.406003	2.783091	-180.418926	0.306167	0.676924	-1.206779	57.706217	-21.796714	-13.960639	-77.418593	26.773872	7.425643	0.000000	60.525295	-26.851349	-9.225604	-78.188382	26.833400	9.981968	0.000000	-7.780949	2.726743	2.091904
5.100000	11.427151	2.770641	-180.388345	0.306660	0.673599	-1.206836	58.221649	-21.946018	-13.792749	-78.192428	27.074347	7.378658	0.000000	61.092765	-26.907665	-8.973498	-79.047125	26.989677	10.007696	0.000000	-7.875049	2.669524	2.137161
5.105000	11.460654	2.789180	-180.383364	0.307087	0.670338	-1.206875	58.723947	-22.051185	-13.605388	-78.941938	27.394283	7.432190	0.000000	61.634941	-26.991257	-8.714440	-79.767809	27.299489	10.045963	0.000000	-7.928354	2.681894	2.159935
5.110000	11.458072	2.811985	-180.380473	0.307506	0.667033	-1.206986	59.206929	-22.159812	-13.477218	-79.710570	27.675062	7.316148	0.000000	62.061707	-27.096048	-8.502911	-80.174194	28.096942	10.265279	0.000000	-8.029948	2.685172	2.194189
5.115000	11.482079	2.795892	-180.360891	0.307958	0.663809	-1.207044	59.699973	-22.289039	-13.283140	-80.427099	27.973220	7.321653	0.000000	62.664361	-27.142854	-8.214235	-81.187202	27.947503	10.218438	0.000000	-8.113496	2.644585	2.202018
5.120000	11.505297	2.789640	-180.345545	0.308343	0.660618	-1.207217	60.176986	-22.383344	-13.086575	-81.130509	28.261469	7.303561	0.000000	63.140936	-27.211445	-7.983200	-81.748025	28.396812	10.351863	0.000000	-8.189401	2.582052	2.255535
5.125000	11.518318	2.769181	-180.328547	0.308785	0.657299	-1.207272	60.683574	-22.520045	-12.888674	-81.873167	28.541150	7.309258	0.000000	63.648315	-27.264907	-7.774638	-82.424597	28.723300	10.381100	0.000000	-8.281025	2.540255	2.265123
5.130000	11.527078	2.765668	-180.329233	0.309096	0.654138	-1.207295	61.159911	-22.625399	-12.705629	-82.593650	28.812326	7.292233	0.000000	64.130888	-27.331785	-7.544412	-83.106576	29.026888	10.401840	0.000000	-8.356843	2.532379	2.307840
5.135000	11.534687	2.763789	-180.347963	0.309463	0.650886	-1.207312	61.653728	-22.710816	-12.507080	-83.320002	29.082124	7.257778	0.000000	64.624795	-27.416822	-7.312825	-83.801028	29.313643	10.395301	0.000000	-8.445703	2.521401	2.371805
5.140000	11.519182	2.750574	-180.356468	0.309822	0.647696	-1.207424	62.111870	-22.786528	-12.287381	-84.029383	29.355880	7.216451	0.000000	65.093207	-27.495955	-7.091151	-84.528621	29.525697	10.399485	0.000000	-8.563372	2.481058	2.415690
5.145000	11.541408	2.709243	-180.336894	0.310186	0.644474	-1.207484	62.604775	-22.904618	-12.054405	-84.722486	29.607885	7.219025	0.000000	65.575291	-27.530077	-6.903749	-85.199806	29.772463	10.426011	0.000000	-8.629557	2.422463	2.412841
5.150000	11.508415	2.696275	-180.333394	0.310455	0.641391	-1.207581	63.012611	-22.990075	-11.850579	-85.394099	29.904744	7.190550	0.000000	66.012493	-27.608812	-6.707755	-85.935510	29.946610	10.403211	0.000000	-8.755385	2.391877	2.450673
5.155000	11.549982	2.678537	-180.338653	0.310816	0.638229	-1.207704	63.517278	-23.061524	-11.621753	-86.061756	30.127967	7.189864	0.000000	66.550788	-27.681364	-6.490596	-86.755096	30.066285	10.461500	0.000000	-8.801348	2.352582	2.495855
5.160000	11.545493	2.687814	-180.361368	0.311108	0.635121	-1.207854	63.959819	-23.107421	-11.424392	-86.731888	30.377194	7.164148	0.000000	67.005728	-27.792266	-6.270569	-87.399445	30.336107	10.511879	0.000000	-8.892493	2.337886	2.548563
5.165000	11.554598	2.655651	-180.376066	0.311406	0.632001	-1.207888	64.438250	-23.217082	-11.216531	-87.408398	30.621999	7.126018	0.000000	67.541295	-27.859506	-5.846707	-88.083463	30.470514	10.920863	0.000000	-8.968459	2.298736	2.588422
5.170000	11.535651	2.672853	-180.436646	0.311642	0.628935	-1.208022	64.857550	-23.237911	-11.026155	-88.061988	30.848763	7.095437	0.000000	67.875137	-28.016077	-5.882918	-88.679453	30.905673	10.678806	0.000000	-9.065866	2.305664	2.701469
